# xmcd
#
# Track frame offsets:
#	150
#	15380
#	32105
#	48047
#	62505
#	75402
#	85897
#	98825
#	113902
#	134477
#	148620
#	164757
#	179922
#
# Disc length: 2561 seconds
#
# Revision: 0
# Processed by: cddbd v1.4PL0 Copyright (c) Steve Scherf et al.
# Submitted via: dBpowerAMP V4.0
#
DISCID=aa09ff0d
DTITLE=d Henry Fenton - Autumn Sweet
DYEAR=2002
DGENRE=Altern.Country
TTITLE0=Trouble Comes
TTITLE1=Autumn Sweet
TTITLE2=Over n Over
TTITLE3=Sleep
TTITLE4=I'm Not Ready For You 
TTITLE5=Lightning
TTITLE6=Love Only Lies Half Naked Next To Me
TTITLE7=Slow Down Dixie
TTITLE8=New York Song
TTITLE9=Only Angels Can Fly
TTITLE10=The many Faces Of Esther
TTITLE11=Sad Hotel
TTITLE12=Jericho's Horse
EXTD=
EXTT0=
EXTT1=
EXTT2=
EXTT3=
EXTT4=
EXTT5=
EXTT6=
EXTT7=
EXTT8=
EXTT9=
EXTT10=
EXTT11=
EXTT12=
PLAYORDER=
